<svg xmlns="http://www.w3.org/2000/svg" xmlns:xlink="http://www.w3.org/1999/xlink" width="1080" zoomAndPan="magnify" viewBox="0 0 810 809.999993" height="1080" preserveAspectRatio="xMidYMid meet" version="1.0"><path fill="#dfeef7" d="M 801.28125 608.472656 C 809.90625 671.796875 781.6875 732.953125 731.660156 768.289062 C 725.480469 772.652344 716.847656 770.621094 713.011719 764.105469 L 712.007812 762.394531 C 708.554688 756.515625 710.257812 749.046875 715.816406 745.105469 C 757.183594 715.753906 780.550781 665.113281 773.53125 612.585938 C 772.625 605.847656 776.957031 599.527344 783.597656 598.058594 L 785.507812 597.636719 C 792.90625 596.007812 800.257812 600.972656 801.28125 608.472656 " fill-opacity="1" fill-rule="nonzero"/><path fill="#dfeef7" d="M 746.347656 621.476562 C 749.652344 659.714844 733.011719 696.191406 703.964844 719 C 697.660156 723.945312 688.472656 722.421875 684.402344 715.523438 L 683.449219 713.910156 C 680.050781 708.148438 681.691406 700.933594 686.9375 696.773438 C 708.5625 679.59375 720.902344 652.367188 718.390625 623.761719 C 717.824219 617.335938 722.398438 611.574219 728.691406 610.183594 L 730.476562 609.789062 C 738.203125 608.085938 745.671875 613.589844 746.347656 621.476562 " fill-opacity="1" fill-rule="nonzero"/><path fill="#dfeef7" d="M 1.898438 158.683594 C 18.699219 97.015625 68.578125 51.742188 128.445312 38.746094 C 135.839844 37.144531 142.996094 42.386719 143.972656 49.878906 L 144.234375 51.847656 C 145.121094 58.605469 140.628906 64.808594 133.976562 66.269531 C 84.421875 77.140625 43.113281 114.636719 29.058594 165.738281 C 27.253906 172.289062 20.800781 176.410156 14.109375 175.171875 L 12.183594 174.816406 C 4.742188 173.425781 -0.0898438 165.988281 1.898438 158.683594 " fill-opacity="1" fill-rule="nonzero"/><path fill="#dfeef7" d="M 57.542969 168.15625 C 69.457031 131.664062 99.027344 104.589844 134.675781 94.9375 C 142.414062 92.839844 150.277344 97.832031 151.332031 105.773438 L 151.574219 107.636719 C 152.445312 114.261719 148.113281 120.253906 141.667969 122.039062 C 115.039062 129.414062 93.046875 149.660156 84.179688 176.976562 C 82.1875 183.105469 75.722656 186.628906 69.386719 185.445312 L 67.59375 185.113281 C 59.808594 183.667969 55.09375 175.683594 57.542969 168.15625 " fill-opacity="1" fill-rule="nonzero"/><path fill="#fec108" d="M 723.660156 320.464844 L 675.191406 623.769531 C 669.175781 661.429688 633.753906 687.105469 596.058594 681.082031 L 126.453125 606.105469 C 88.75 600.09375 63.089844 564.65625 69.117188 527.007812 L 117.585938 223.695312 C 120.078125 208.082031 127.617188 194.550781 138.289062 184.476562 C 153.351562 170.199219 174.644531 162.851562 196.71875 166.382812 L 666.324219 241.355469 C 688.398438 244.878906 706.347656 258.492188 716.210938 276.746094 C 723.214844 289.636719 726.164062 304.84375 723.660156 320.464844 " fill-opacity="1" fill-rule="nonzero"/><path fill="#feb60a" d="M 138.289062 184.476562 L 393.421875 516.28125 L 716.210938 276.746094 Z M 138.289062 184.476562 " fill-opacity="1" fill-rule="nonzero"/><path fill="#fdac01" d="M 76.566406 570.714844 L 403.355469 380.132812 L 654.488281 662.988281 C 639.425781 677.265625 618.132812 684.613281 596.058594 681.082031 L 126.453125 606.105469 C 104.371094 602.585938 86.429688 588.972656 76.566406 570.714844 " fill-opacity="1" fill-rule="nonzero"/><path fill="#ffd54f" d="M 716.210938 276.746094 L 389.421875 467.332031 L 138.289062 184.476562 C 153.351562 170.199219 174.644531 162.851562 196.71875 166.382812 L 666.324219 241.355469 C 688.398438 244.878906 706.347656 258.492188 716.210938 276.746094 " fill-opacity="1" fill-rule="nonzero"/><path fill="#f5554a" d="M 809.296875 226.894531 C 809.296875 152.589844 749.035156 92.355469 674.699219 92.355469 C 600.363281 92.355469 540.09375 152.589844 540.09375 226.894531 C 540.09375 301.195312 600.363281 361.4375 674.699219 361.4375 C 749.035156 361.4375 809.296875 301.195312 809.296875 226.894531 " fill-opacity="1" fill-rule="nonzero"/><path fill="#ffffff" d="M 667.230469 203.519531 C 665.085938 205.464844 662.757812 206.988281 660.226562 208.089844 C 657.691406 209.191406 654.714844 209.75 651.269531 209.75 C 649.324219 209.75 647.53125 209.371094 645.875 208.628906 C 644.214844 207.882812 642.808594 206.882812 641.640625 205.617188 C 640.476562 204.34375 639.554688 202.910156 638.871094 201.289062 C 638.191406 199.667969 637.847656 197.945312 637.847656 196.136719 C 637.847656 194.316406 638.144531 192.75 638.726562 191.414062 C 639.3125 190.085938 640.117188 188.9375 641.15625 187.960938 C 642.1875 186.996094 643.390625 186.117188 644.753906 185.335938 C 646.117188 184.558594 647.578125 183.75 649.136719 182.90625 C 652.375 180.765625 655.277344 178.597656 657.84375 176.394531 C 660.40625 174.1875 662.695312 172.125 664.703125 170.21875 C 666.710938 168.300781 668.460938 166.667969 669.957031 165.308594 C 671.445312 163.945312 672.746094 163.003906 673.847656 162.484375 C 674.492188 162.160156 675.09375 161.882812 675.648438 161.660156 C 676.195312 161.433594 676.761719 161.273438 677.34375 161.175781 C 677.9375 161.078125 678.582031 161.015625 679.289062 160.976562 C 680.007812 160.941406 680.914062 160.933594 682.015625 160.933594 C 685.386719 160.933594 688.066406 161.605469 690.050781 162.96875 C 692.019531 164.328125 693.507812 166.09375 694.515625 168.273438 C 695.527344 170.441406 696.15625 172.886719 696.414062 175.613281 C 696.675781 178.335938 696.800781 181.097656 696.800781 183.875 L 696.800781 274.121094 C 696.800781 276.972656 696.675781 279.777344 696.414062 282.539062 C 696.15625 285.289062 695.527344 287.734375 694.515625 289.878906 C 693.507812 292.019531 692.019531 293.75 690.050781 295.074219 C 688.066406 296.410156 685.386719 297.074219 682.015625 297.074219 C 678.582031 297.074219 675.890625 296.410156 673.945312 295.074219 C 672 293.75 670.519531 292.019531 669.515625 289.878906 C 668.503906 287.734375 667.875 285.289062 667.617188 282.539062 C 667.355469 279.777344 667.230469 276.972656 667.230469 274.121094 L 667.230469 203.519531 " fill-opacity="1" fill-rule="nonzero"/></svg>