<svg xmlns="http://www.w3.org/2000/svg" xmlns:xlink="http://www.w3.org/1999/xlink" width="1080" zoomAndPan="magnify" viewBox="0 0 810 809.999993" height="1080" preserveAspectRatio="xMidYMid meet" version="1.0"><path fill="#f5e6ca" d="M 255.414062 808.320312 L 555.199219 808.320312 C 559.160156 808.320312 652.738281 807.601562 707.773438 745.253906 C 739.421875 709.394531 751.753906 661.464844 744.421875 602.800781 C 722.355469 426.546875 567.9375 279.867188 506.777344 235.324219 L 581.894531 139.320312 C 583.207031 137.648438 584.285156 135.789062 585.074219 133.832031 C 595.601562 107.636719 582.847656 77.671875 556.582031 67.011719 L 523.511719 53.726562 C 521.578125 24.792969 497.441406 1.851562 468.035156 1.851562 L 342.53125 1.851562 C 313.160156 1.851562 289.042969 24.785156 287.113281 53.707031 L 253.957031 67.019531 C 227.710938 77.65625 214.957031 107.628906 225.519531 133.839844 C 226.308594 135.804688 227.378906 137.648438 228.679688 139.308594 L 303.835938 235.3125 C 242.695312 279.875 88.222656 426.613281 66.152344 602.785156 C 58.816406 661.464844 71.164062 709.394531 102.820312 745.253906 C 157.871094 807.601562 251.46875 808.320312 255.414062 808.320312 Z M 270.851562 108.886719 L 304.222656 95.484375 L 329.824219 142.9375 C 333.910156 150.519531 341.679688 154.796875 349.699219 154.796875 C 353.328125 154.796875 357.003906 153.933594 360.398438 152.089844 C 371.367188 146.179688 375.472656 132.472656 369.542969 121.515625 L 334.699219 56.921875 C 334.132812 55.890625 333.453125 54.972656 332.769531 54.085938 C 334.207031 50.015625 338.070312 46.996094 342.542969 46.996094 L 468.054688 46.996094 C 472.804688 46.996094 476.925781 50.347656 478.140625 54.785156 L 476.835938 58.648438 L 442.910156 121.523438 C 437 132.492188 441.085938 146.191406 452.074219 152.101562 C 455.476562 153.941406 459.140625 154.804688 462.753906 154.804688 C 470.792969 154.804688 478.5625 150.519531 482.632812 142.949219 L 507.90625 96.105469 L 539.679688 108.878906 C 542.183594 109.890625 543.730469 112.453125 543.621094 115.019531 L 463.5 217.382812 C 446.164062 215.300781 423.941406 214.734375 405.292969 214.734375 C 386.664062 214.734375 364.449219 215.300781 347.097656 217.382812 L 266.953125 115.019531 C 266.855469 112.433594 268.375 109.882812 270.851562 108.886719 Z M 110.941406 608.40625 C 134.554688 419.902344 325.503906 271.878906 341.886719 263.941406 C 346.890625 262.242188 369.867188 259.851562 405.292969 259.851562 C 440.726562 259.851562 463.714844 262.242188 468.152344 263.699219 C 485.121094 271.890625 676.03125 419.820312 699.636719 608.398438 C 705.285156 653.605469 696.671875 689.570312 674.019531 715.289062 C 632.476562 762.464844 555.945312 763.183594 555.183594 763.183594 L 255.414062 763.183594 C 254.640625 763.183594 178.128906 762.464844 136.574219 715.289062 C 113.921875 689.5625 105.289062 653.605469 110.941406 608.40625 Z M 110.941406 608.40625 " fill-opacity="1" fill-rule="nonzero"/><path fill="#f5e6ca" d="M 385.511719 676.617188 L 385.511719 696.300781 C 385.511719 708.757812 395.617188 718.863281 408.078125 718.863281 C 420.554688 718.863281 430.660156 708.757812 430.660156 696.300781 L 430.660156 676.332031 C 465.078125 672.855469 492.042969 643.679688 492.042969 608.335938 L 492.042969 577.121094 C 492.042969 562.597656 485.585938 541.171875 454.882812 521.679688 C 453.617188 520.871094 452.289062 520.207031 450.90625 519.660156 L 445.972656 517.765625 C 445.589844 517.585938 445.273438 517.359375 444.871094 517.199219 L 430.660156 511.765625 L 430.660156 422.660156 C 440.027344 425.625 446.910156 434.34375 446.910156 444.710938 L 446.910156 459.273438 C 446.910156 471.75 457.011719 481.851562 469.472656 481.851562 C 481.949219 481.851562 492.054688 471.75 492.054688 459.273438 L 492.054688 444.710938 C 492.054688 409.339844 465.089844 380.164062 430.667969 376.679688 L 430.667969 358.472656 C 430.667969 345.996094 420.5625 335.890625 408.085938 335.890625 C 395.628906 335.890625 385.523438 345.996094 385.523438 358.472656 L 385.523438 376.398438 C 348.507812 377.15625 318.613281 407.46875 318.613281 444.710938 L 318.613281 475.835938 C 318.613281 490.304688 324.910156 511.574219 354.945312 530.628906 C 356.214844 531.4375 357.558594 532.117188 358.960938 532.667969 L 380.105469 540.75 L 385.53125 542.835938 L 385.53125 631.390625 C 373.40625 630.65625 363.757812 620.640625 363.757812 608.324219 L 363.757812 593.765625 C 363.757812 581.304688 353.652344 571.203125 341.175781 571.203125 C 328.71875 571.203125 318.613281 581.304688 318.613281 593.765625 L 318.613281 608.324219 C 318.605469 645.546875 348.496094 675.863281 385.511719 676.617188 Z M 363.75 444.730469 C 363.75 432.394531 373.394531 422.363281 385.523438 421.625 L 385.523438 494.464844 L 384.292969 493.988281 C 384.167969 493.953125 384.050781 493.933594 383.921875 493.898438 L 377.347656 491.375 C 368.914062 485.707031 363.75 479.851562 363.75 475.84375 Z M 432.445312 560.933594 C 442.363281 567.597656 446.898438 573.914062 446.898438 577.128906 L 446.898438 608.34375 C 446.898438 618.710938 440.019531 627.414062 430.648438 630.378906 L 430.648438 560.25 Z M 432.445312 560.933594 " fill-opacity="1" fill-rule="nonzero"/></svg>