<svg xmlns="http://www.w3.org/2000/svg" xmlns:xlink="http://www.w3.org/1999/xlink" width="1080" zoomAndPan="magnify" viewBox="0 0 810 809.999993" height="1080" preserveAspectRatio="xMidYMid meet" version="1.0"><defs><clipPath id="021ee80d8e"><path d="M 0 33.917969 L 810 33.917969 L 810 776.417969 L 0 776.417969 Z M 0 33.917969 " clip-rule="nonzero"/></clipPath></defs><g clip-path="url(#021ee80d8e)"><path fill="#f5e6ca" d="M 478.675781 77.167969 C 463.394531 50.484375 435.191406 33.917969 405 33.917969 C 374.808594 33.917969 346.605469 50.484375 330.917969 77.976562 L 14.015625 645.289062 L 10.710938 650.890625 C 3.828125 663.339844 0.183594 677.472656 0.183594 691.742188 C 0.183594 738.261719 38 776.078125 84.523438 776.078125 L 725.476562 776.078125 C 772 776.078125 809.816406 738.261719 809.816406 691.742188 C 809.816406 677.472656 806.171875 663.339844 799.019531 650.351562 Z M 725.476562 742.34375 L 84.523438 742.34375 C 56.625 742.34375 33.921875 719.640625 33.921875 691.742188 C 33.921875 683.039062 36.046875 674.773438 39.992188 667.691406 L 360.605469 93.898438 C 369.882812 77.738281 386.882812 67.652344 405 67.652344 C 423.117188 67.652344 440.117188 77.738281 449.628906 94.4375 L 766.972656 662.628906 L 769.738281 667.183594 C 773.953125 674.773438 776.078125 683.039062 776.078125 691.742188 C 776.078125 719.640625 753.375 742.34375 725.476562 742.34375 Z M 725.476562 742.34375 " fill-opacity="1" fill-rule="nonzero"/></g><path fill="#f5e6ca" d="M 438.734375 641.140625 C 438.734375 642.246094 438.679688 643.347656 438.570312 644.449219 C 438.464844 645.546875 438.300781 646.636719 438.085938 647.722656 C 437.871094 648.804688 437.601562 649.875 437.28125 650.933594 C 436.960938 651.992188 436.589844 653.03125 436.167969 654.050781 C 435.742188 655.070312 435.273438 656.070312 434.75 657.042969 C 434.230469 658.015625 433.664062 658.964844 433.050781 659.882812 C 432.433594 660.800781 431.777344 661.6875 431.078125 662.542969 C 430.375 663.394531 429.636719 664.214844 428.855469 664.996094 C 428.074219 665.777344 427.253906 666.515625 426.402344 667.21875 C 425.546875 667.917969 424.660156 668.574219 423.742188 669.191406 C 422.824219 669.804688 421.875 670.371094 420.902344 670.890625 C 419.929688 671.414062 418.929688 671.882812 417.910156 672.308594 C 416.890625 672.730469 415.851562 673.101562 414.792969 673.421875 C 413.734375 673.742188 412.664062 674.011719 411.582031 674.226562 C 410.496094 674.441406 409.40625 674.605469 408.304688 674.714844 C 407.207031 674.820312 406.105469 674.875 405 674.875 C 403.894531 674.875 402.792969 674.820312 401.695312 674.714844 C 400.59375 674.605469 399.503906 674.441406 398.417969 674.226562 C 397.335938 674.011719 396.265625 673.742188 395.207031 673.421875 C 394.148438 673.101562 393.109375 672.730469 392.089844 672.308594 C 391.070312 671.882812 390.070312 671.414062 389.097656 670.890625 C 388.125 670.371094 387.175781 669.804688 386.257812 669.191406 C 385.339844 668.578125 384.453125 667.917969 383.597656 667.21875 C 382.746094 666.515625 381.925781 665.777344 381.144531 664.996094 C 380.363281 664.214844 379.625 663.394531 378.921875 662.542969 C 378.222656 661.6875 377.566406 660.800781 376.949219 659.882812 C 376.335938 658.964844 375.769531 658.015625 375.25 657.042969 C 374.726562 656.070312 374.257812 655.070312 373.832031 654.050781 C 373.410156 653.03125 373.039062 651.992188 372.71875 650.933594 C 372.398438 649.875 372.128906 648.804688 371.914062 647.722656 C 371.699219 646.636719 371.535156 645.546875 371.429688 644.449219 C 371.320312 643.347656 371.265625 642.246094 371.265625 641.140625 C 371.265625 640.035156 371.320312 638.933594 371.429688 637.835938 C 371.535156 636.734375 371.699219 635.644531 371.914062 634.558594 C 372.128906 633.476562 372.398438 632.40625 372.71875 631.347656 C 373.039062 630.289062 373.410156 629.25 373.832031 628.230469 C 374.257812 627.210938 374.726562 626.210938 375.25 625.238281 C 375.769531 624.265625 376.335938 623.316406 376.949219 622.398438 C 377.566406 621.480469 378.222656 620.59375 378.921875 619.738281 C 379.625 618.886719 380.363281 618.066406 381.144531 617.285156 C 381.925781 616.503906 382.746094 615.765625 383.597656 615.0625 C 384.453125 614.363281 385.339844 613.707031 386.257812 613.089844 C 387.175781 612.476562 388.125 611.910156 389.097656 611.390625 C 390.070312 610.867188 391.070312 610.398438 392.089844 609.972656 C 393.109375 609.550781 394.148438 609.179688 395.207031 608.859375 C 396.265625 608.539062 397.335938 608.269531 398.417969 608.054688 C 399.503906 607.839844 400.59375 607.675781 401.695312 607.570312 C 402.792969 607.460938 403.894531 607.40625 405 607.40625 C 406.105469 607.40625 407.207031 607.460938 408.304688 607.570312 C 409.40625 607.675781 410.496094 607.839844 411.582031 608.054688 C 412.664062 608.269531 413.734375 608.539062 414.792969 608.859375 C 415.851562 609.179688 416.890625 609.550781 417.910156 609.972656 C 418.929688 610.398438 419.929688 610.867188 420.902344 611.390625 C 421.875 611.910156 422.824219 612.476562 423.742188 613.089844 C 424.660156 613.707031 425.546875 614.363281 426.402344 615.0625 C 427.253906 615.765625 428.074219 616.503906 428.855469 617.285156 C 429.636719 618.066406 430.375 618.886719 431.078125 619.738281 C 431.777344 620.59375 432.433594 621.480469 433.050781 622.398438 C 433.664062 623.316406 434.230469 624.265625 434.75 625.238281 C 435.273438 626.210938 435.742188 627.210938 436.167969 628.230469 C 436.589844 629.25 436.960938 630.289062 437.28125 631.347656 C 437.601562 632.40625 437.871094 633.476562 438.085938 634.558594 C 438.300781 635.644531 438.464844 636.734375 438.570312 637.835938 C 438.679688 638.933594 438.734375 640.035156 438.734375 641.140625 Z M 438.734375 641.140625 " fill-opacity="1" fill-rule="nonzero"/><path fill="#f5e6ca" d="M 405 236.328125 C 386.445312 236.328125 371.265625 251.507812 371.265625 270.0625 C 371.265625 270.769531 371.636719 271.375 371.671875 272.085938 L 371.265625 272.085938 L 388.132812 556.804688 L 388.132812 557.816406 C 388.808594 566.925781 395.890625 573.671875 405 573.671875 C 414.109375 573.671875 421.191406 566.925781 421.867188 557.816406 L 421.867188 556.804688 L 438.734375 272.085938 L 438.328125 272.085938 C 438.363281 271.375 438.734375 270.769531 438.734375 270.0625 C 438.734375 251.507812 423.554688 236.328125 405 236.328125 Z M 405 236.328125 " fill-opacity="1" fill-rule="nonzero"/></svg>