<svg xmlns="http://www.w3.org/2000/svg" xmlns:xlink="http://www.w3.org/1999/xlink" width="1080" zoomAndPan="magnify" viewBox="0 0 810 809.999993" height="1080" preserveAspectRatio="xMidYMid meet" version="1.0"><defs><clipPath id="e3d92559ba"><path d="M 0 442 L 810 442 L 810 683.8125 L 0 683.8125 Z M 0 442 " clip-rule="nonzero"/></clipPath><clipPath id="8903ac558b"><path d="M 405 126.5625 L 481 126.5625 L 481 203 L 405 203 Z M 405 126.5625 " clip-rule="nonzero"/></clipPath></defs><g clip-path="url(#e3d92559ba)"><path fill="#f5e6ca" d="M 797.34375 658.125 L 734.0625 658.125 L 734.0625 544.21875 C 741.054688 544.21875 746.71875 538.554688 746.71875 531.5625 L 746.71875 455.625 C 746.71875 448.632812 741.054688 442.96875 734.0625 442.96875 L 708.75 442.96875 C 701.757812 442.96875 696.09375 448.632812 696.09375 455.625 L 696.09375 531.5625 C 696.09375 538.554688 701.757812 544.21875 708.75 544.21875 L 708.75 658.125 L 417.65625 658.125 L 417.65625 544.21875 C 424.648438 544.21875 430.3125 538.554688 430.3125 531.5625 L 430.3125 455.625 C 430.3125 448.632812 424.648438 442.96875 417.65625 442.96875 L 392.34375 442.96875 C 385.351562 442.96875 379.6875 448.632812 379.6875 455.625 L 379.6875 531.5625 C 379.6875 538.554688 385.351562 544.21875 392.34375 544.21875 L 392.34375 658.125 L 101.25 658.125 L 101.25 544.21875 C 108.242188 544.21875 113.90625 538.554688 113.90625 531.5625 L 113.90625 455.625 C 113.90625 448.632812 108.242188 442.96875 101.25 442.96875 L 75.9375 442.96875 C 68.945312 442.96875 63.28125 448.632812 63.28125 455.625 L 63.28125 531.5625 C 63.28125 538.554688 68.945312 544.21875 75.9375 544.21875 L 75.9375 658.125 L 12.65625 658.125 C 5.664062 658.125 0 663.789062 0 670.78125 C 0 677.773438 5.664062 683.4375 12.65625 683.4375 L 797.34375 683.4375 C 804.335938 683.4375 810 677.773438 810 670.78125 C 810 663.789062 804.335938 658.125 797.34375 658.125 Z M 797.34375 658.125 " fill-opacity="1" fill-rule="nonzero"/></g><g clip-path="url(#8903ac558b)"><path fill="#f5e6ca" d="M 480.9375 164.53125 C 480.9375 165.773438 480.875 167.015625 480.753906 168.253906 C 480.632812 169.492188 480.449219 170.71875 480.207031 171.9375 C 479.964844 173.160156 479.664062 174.363281 479.300781 175.554688 C 478.941406 176.742188 478.523438 177.914062 478.046875 179.0625 C 477.570312 180.210938 477.039062 181.332031 476.453125 182.429688 C 475.867188 183.527344 475.230469 184.589844 474.539062 185.625 C 473.847656 186.660156 473.109375 187.65625 472.320312 188.617188 C 471.53125 189.578125 470.695312 190.5 469.816406 191.378906 C 468.9375 192.257812 468.015625 193.09375 467.054688 193.882812 C 466.09375 194.671875 465.097656 195.410156 464.0625 196.101562 C 463.027344 196.792969 461.964844 197.429688 460.867188 198.015625 C 459.769531 198.601562 458.648438 199.132812 457.5 199.609375 C 456.351562 200.085938 455.179688 200.503906 453.992188 200.863281 C 452.800781 201.226562 451.59375 201.527344 450.375 201.769531 C 449.15625 202.011719 447.929688 202.195312 446.691406 202.316406 C 445.453125 202.4375 444.210938 202.5 442.96875 202.5 C 441.726562 202.5 440.484375 202.4375 439.246094 202.316406 C 438.007812 202.195312 436.78125 202.011719 435.5625 201.769531 C 434.339844 201.527344 433.136719 201.226562 431.945312 200.863281 C 430.757812 200.503906 429.585938 200.085938 428.4375 199.609375 C 427.289062 199.132812 426.167969 198.601562 425.070312 198.015625 C 423.972656 197.429688 422.910156 196.792969 421.875 196.101562 C 420.839844 195.410156 419.84375 194.671875 418.882812 193.882812 C 417.921875 193.09375 417 192.257812 416.121094 191.378906 C 415.242188 190.5 414.40625 189.578125 413.617188 188.617188 C 412.828125 187.65625 412.089844 186.660156 411.398438 185.625 C 410.707031 184.589844 410.070312 183.527344 409.484375 182.429688 C 408.898438 181.332031 408.367188 180.210938 407.890625 179.0625 C 407.414062 177.914062 406.996094 176.742188 406.636719 175.554688 C 406.273438 174.363281 405.972656 173.160156 405.730469 171.9375 C 405.488281 170.71875 405.304688 169.492188 405.183594 168.253906 C 405.0625 167.015625 405 165.773438 405 164.53125 C 405 163.289062 405.0625 162.046875 405.183594 160.808594 C 405.304688 159.570312 405.488281 158.34375 405.730469 157.125 C 405.972656 155.902344 406.273438 154.699219 406.636719 153.507812 C 406.996094 152.320312 407.414062 151.148438 407.890625 150 C 408.367188 148.851562 408.898438 147.730469 409.484375 146.632812 C 410.070312 145.535156 410.707031 144.472656 411.398438 143.4375 C 412.089844 142.402344 412.828125 141.40625 413.617188 140.445312 C 414.40625 139.484375 415.242188 138.5625 416.121094 137.683594 C 417 136.804688 417.921875 135.96875 418.882812 135.179688 C 419.84375 134.390625 420.839844 133.652344 421.875 132.960938 C 422.910156 132.269531 423.972656 131.632812 425.070312 131.046875 C 426.167969 130.460938 427.289062 129.929688 428.4375 129.453125 C 429.585938 128.976562 430.757812 128.558594 431.945312 128.199219 C 433.136719 127.835938 434.339844 127.535156 435.5625 127.292969 C 436.78125 127.050781 438.007812 126.867188 439.246094 126.746094 C 440.484375 126.625 441.726562 126.5625 442.96875 126.5625 C 444.210938 126.5625 445.453125 126.625 446.691406 126.746094 C 447.929688 126.867188 449.15625 127.050781 450.375 127.292969 C 451.59375 127.535156 452.800781 127.835938 453.992188 128.199219 C 455.179688 128.558594 456.351562 128.976562 457.5 129.453125 C 458.648438 129.929688 459.769531 130.460938 460.867188 131.046875 C 461.964844 131.632812 463.027344 132.269531 464.0625 132.960938 C 465.097656 133.652344 466.09375 134.390625 467.054688 135.179688 C 468.015625 135.96875 468.9375 136.804688 469.816406 137.683594 C 470.695312 138.5625 471.53125 139.484375 472.320312 140.445312 C 473.109375 141.40625 473.847656 142.402344 474.539062 143.4375 C 475.230469 144.472656 475.867188 145.535156 476.453125 146.632812 C 477.039062 147.730469 477.570312 148.851562 478.046875 150 C 478.523438 151.148438 478.941406 152.320312 479.300781 153.507812 C 479.664062 154.699219 479.964844 155.902344 480.207031 157.125 C 480.449219 158.34375 480.632812 159.570312 480.753906 160.808594 C 480.875 162.046875 480.9375 163.289062 480.9375 164.53125 Z M 480.9375 164.53125 " fill-opacity="1" fill-rule="nonzero"/></g><path fill="#f5e6ca" d="M 463.410156 329.0625 L 434.410156 329.0625 L 426.609375 342.226562 L 403.195312 379.6875 L 463.867188 379.6875 L 526.121094 433.097656 C 532.621094 438.664062 542.304688 438.300781 548.363281 432.242188 L 552.082031 428.523438 C 558.1875 422.417969 558.503906 412.609375 552.777344 406.125 L 499.003906 345.136719 C 490.003906 334.914062 477.03125 329.0625 463.410156 329.0625 Z M 463.410156 329.0625 " fill-opacity="1" fill-rule="nonzero"/><path fill="#f5e6ca" d="M 254.847656 277.613281 C 258.660156 285.222656 267.664062 288.65625 275.574219 285.492188 L 324.871094 265.78125 L 348.140625 265.78125 L 368.390625 229.078125 C 371.191406 224 374.546875 219.363281 378.328125 215.15625 L 328.855469 215.15625 C 318.082031 215.15625 307.625 218.828125 299.210938 225.550781 L 259.261719 257.507812 C 253.234375 262.332031 251.402344 270.703125 254.847656 277.613281 Z M 254.847656 277.613281 " fill-opacity="1" fill-rule="nonzero"/><path fill="#f5e6ca" d="M 248.140625 430.3125 L 315.410156 430.3125 C 331.769531 430.3125 346.988281 421.878906 355.65625 408.003906 L 405 329.0625 L 442.476562 265.78125 L 505.664062 265.78125 C 519.429688 265.78125 532.511719 259.800781 541.53125 249.40625 L 578.183594 208.335938 C 583.816406 201.851562 583.46875 192.105469 577.394531 186.03125 L 573.34375 181.980469 C 567.394531 176.03125 557.902344 175.558594 551.402344 180.890625 L 510.472656 215.15625 L 480.90625 215.15625 C 470.320312 223.097656 457.191406 227.8125 442.984375 227.8125 C 432.117188 227.8125 421.863281 225.058594 412.910156 220.203125 C 403.609375 224.679688 395.730469 231.957031 390.570312 241.324219 L 341.734375 329.804688 L 316.421875 379.6875 L 245.292969 389.84375 C 235.28125 391.269531 227.828125 399.859375 227.828125 409.96875 C 227.828125 421.199219 236.925781 430.296875 248.15625 430.296875 Z M 248.140625 430.3125 " fill-opacity="1" fill-rule="nonzero"/></svg>